<svg xmlns="http://www.w3.org/2000/svg" width="150" height="150" fill="none" xmlns:v="https://vecta.io/nano"><style><![CDATA[.B{fill:#fff}.C{fill:#000}]]></style><path d="M150 0H0V150H150V0Z" class="B"/><g class="C"><path d="M13.274 9.292H9.292v3.982h3.982V9.292z"/><use href="#B"/><use href="#B" x="3.982"/><use href="#B" x="7.964"/><use href="#B" x="11.947"/><use href="#B" x="15.929"/><use href="#B" x="19.911"/></g><use href="#B" x="23.894" class="B"/><path d="M45.133 9.292H41.15v3.982h3.982V9.292z" class="C"/><g class="B"><use href="#B" x="31.858"/><use href="#B" x="35.84"/></g><g class="C"><use href="#B" x="39.823"/><path d="M61.062 9.292H57.08v3.982h3.982V9.292z"/></g><g class="B"><use href="#B" x="47.787"/><use href="#B" x="51.77"/></g><g class="C"><use href="#B" x="55.752"/><use href="#B" x="59.734"/><use href="#B" x="63.717"/><use href="#B" x="67.699"/></g><g class="B"><use href="#B" x="71.681"/><use href="#B" x="75.663"/></g><g class="C"><path d="M96.903 9.292H92.92v3.982h3.982V9.292z"/><use href="#B" x="83.628"/></g><g class="B"><use href="#B" x="87.61"/><use href="#B" x="91.592"/><use href="#B" x="95.575"/></g><g class="C"><use href="#B" x="99.557"/><use href="#C"/><use href="#C" x="3.982"/><use href="#B" x="111.504"/><use href="#B" x="115.486"/><use href="#C" x="15.929"/><use href="#B" x="123.451"/><use href="#D"/></g><g class="B"><use href="#E"/><use href="#E" x="3.982"/><use href="#E" x="7.964"/><use href="#E" x="11.947"/><use href="#E" x="15.929"/></g><use href="#E" x="19.911" class="C"/><g class="B"><use href="#E" x="23.894"/><use href="#F"/></g><g class="C"><use href="#E" x="31.858"/><use href="#E" x="35.84"/></g><g class="B"><use href="#E" x="39.823"/><use href="#G"/><use href="#E" x="47.787"/><use href="#E" x="51.77"/><use href="#E" x="55.752"/></g><use href="#E" x="59.734" class="C"/><g class="B"><use href="#E" x="63.717"/><use href="#E" x="67.699"/></g><use href="#E" x="71.681" class="C"/><g class="B"><use href="#E" x="75.663"/><use href="#H"/></g><use href="#E" x="83.628" class="C"/><g class="B"><use href="#E" x="87.61"/><use href="#E" x="91.592"/><use href="#E" x="95.575"/></g><use href="#E" x="99.557" class="C"/><g class="B"><use href="#I"/><use href="#I" x="3.982"/><use href="#E" x="111.504"/><use href="#E" x="115.486"/><use href="#I" x="15.929"/></g><g class="C"><use href="#E" x="123.451"/><use href="#D" y="3.983"/></g><use href="#E" y="3.983" class="B"/><g class="C"><use href="#E" x="3.982" y="3.983"/><use href="#E" x="7.964" y="3.983"/><use href="#E" x="11.947" y="3.983"/></g><use href="#E" x="15.929" y="3.983" class="B"/><use href="#E" x="19.911" y="3.983" class="C"/><g class="B"><use href="#E" x="23.894" y="3.983"/><use href="#F" y="3.983"/><use href="#E" x="31.858" y="3.983"/></g><use href="#E" x="35.84" y="3.983" class="C"/><use href="#E" x="39.823" y="3.983" class="B"/><use href="#G" y="3.983" class="C"/><g class="B"><use href="#E" x="47.787" y="3.983"/><use href="#E" x="51.77" y="3.983"/></g><g class="C"><use href="#E" x="55.752" y="3.983"/><use href="#E" x="59.734" y="3.983"/></g><g class="B"><use href="#E" x="63.717" y="3.983"/><use href="#E" x="67.699" y="3.983"/><use href="#E" x="71.681" y="3.983"/></g><g class="C"><use href="#E" x="75.663" y="3.983"/><use href="#H" y="3.983"/></g><g class="B"><use href="#E" x="83.628" y="3.983"/><use href="#E" x="87.61" y="3.983"/><use href="#E" x="91.592" y="3.983"/><use href="#E" x="95.575" y="3.983"/></g><use href="#E" x="99.557" y="3.983" class="C"/><use href="#I" y="3.983" class="B"/><g class="C"><use href="#I" x="3.982" y="3.983"/><use href="#E" x="111.504" y="3.983"/><use href="#E" x="115.486" y="3.983"/></g><use href="#I" x="15.929" y="3.983" class="B"/><g class="C"><use href="#E" x="123.451" y="3.983"/><use href="#D" y="7.965"/></g><use href="#E" y="7.965" class="B"/><g class="C"><use href="#E" x="3.982" y="7.965"/><use href="#E" x="7.964" y="7.965"/><use href="#E" x="11.947" y="7.965"/></g><use href="#E" x="15.929" y="7.965" class="B"/><use href="#E" x="19.911" y="7.965" class="C"/><g class="B"><use href="#E" x="23.894" y="7.965"/><use href="#F" y="7.965"/><use href="#E" x="31.858" y="7.965"/><use href="#E" x="35.84" y="7.965"/><use href="#E" x="39.823" y="7.965"/></g><use href="#G" y="7.965" class="C"/><g class="B"><use href="#E" x="47.787" y="7.965"/><use href="#E" x="51.77" y="7.965"/><use href="#E" x="55.752" y="7.965"/></g><g class="C"><use href="#E" x="59.734" y="7.965"/><use href="#E" x="63.717" y="7.965"/><use href="#E" x="67.699" y="7.965"/></g><use href="#E" x="71.681" y="7.965" class="B"/><g class="C"><use href="#E" x="75.663" y="7.965"/><use href="#H" y="7.965"/><use href="#E" x="83.628" y="7.965"/><use href="#E" x="87.61" y="7.965"/><use href="#E" x="91.592" y="7.965"/></g><use href="#E" x="95.575" y="7.965" class="B"/><use href="#E" x="99.557" y="7.965" class="C"/><use href="#I" y="7.965" class="B"/><g class="C"><use href="#I" x="3.982" y="7.965"/><use href="#E" x="111.504" y="7.965"/><use href="#E" x="115.486" y="7.965"/></g><use href="#I" x="15.929" y="7.965" class="B"/><g class="C"><use href="#E" x="123.451" y="7.965"/><use href="#D" y="11.948"/></g><use href="#E" y="11.948" class="B"/><g class="C"><use href="#E" x="3.982" y="11.948"/><use href="#E" x="7.964" y="11.948"/><use href="#E" x="11.947" y="11.948"/></g><use href="#E" x="15.929" y="11.948" class="B"/><use href="#E" x="19.911" y="11.948" class="C"/><g class="B"><use href="#E" x="23.894" y="11.948"/><use href="#F" y="11.948"/></g><use href="#E" x="31.858" y="11.948" class="C"/><use href="#E" x="35.84" y="11.948" class="B"/><use href="#E" x="39.823" y="11.948" class="C"/><g class="B"><use href="#G" y="11.948"/><use href="#E" x="47.787" y="11.948"/></g><g class="C"><use href="#E" x="51.77" y="11.948"/><use href="#E" x="55.752" y="11.948"/><use href="#E" x="59.734" y="11.948"/></g><g class="B"><use href="#E" x="63.717" y="11.948"/><use href="#E" x="67.699" y="11.948"/></g><use href="#E" x="71.681" y="11.948" class="C"/><g class="B"><use href="#E" x="75.663" y="11.948"/><use href="#H" y="11.948"/><use href="#E" x="83.628" y="11.948"/><use href="#E" x="87.61" y="11.948"/><use href="#E" x="91.592" y="11.948"/><use href="#E" x="95.575" y="11.948"/></g><use href="#E" x="99.557" y="11.948" class="C"/><use href="#I" y="11.948" class="B"/><g class="C"><use href="#I" x="3.982" y="11.948"/><use href="#E" x="111.504" y="11.948"/><use href="#E" x="115.486" y="11.948"/></g><use href="#I" x="15.929" y="11.948" class="B"/><g class="C"><use href="#E" x="123.451" y="11.948"/><use href="#D" y="15.929"/></g><g class="B"><use href="#E" y="15.929"/><use href="#E" x="3.982" y="15.929"/><use href="#E" x="7.964" y="15.929"/><use href="#E" x="11.947" y="15.929"/><use href="#E" x="15.929" y="15.929"/></g><use href="#E" x="19.911" y="15.929" class="C"/><g class="B"><use href="#E" x="23.894" y="15.929"/><use href="#F" y="15.929"/><use href="#E" x="31.858" y="15.929"/></g><use href="#E" x="35.84" y="15.929" class="C"/><use href="#E" x="39.823" y="15.929" class="B"/><use href="#G" y="15.929" class="C"/><g class="B"><use href="#E" x="47.787" y="15.929"/><use href="#E" x="51.77" y="15.929"/></g><g class="C"><use href="#E" x="55.752" y="15.929"/><use href="#E" x="59.734" y="15.929"/></g><g class="B"><use href="#E" x="63.717" y="15.929"/><use href="#E" x="67.699" y="15.929"/><use href="#E" x="71.681" y="15.929"/></g><g class="C"><use href="#E" x="75.663" y="15.929"/><use href="#H" y="15.929"/></g><use href="#E" x="83.628" y="15.929" class="B"/><g class="C"><use href="#E" x="87.61" y="15.929"/><use href="#E" x="91.592" y="15.929"/></g><use href="#E" x="95.575" y="15.929" class="B"/><use href="#E" x="99.557" y="15.929" class="C"/><g class="B"><use href="#I" y="15.929"/><use href="#I" x="3.982" y="15.929"/><use href="#E" x="111.504" y="15.929"/><use href="#E" x="115.486" y="15.929"/><use href="#I" x="15.929" y="15.929"/></g><g class="C"><use href="#E" x="123.451" y="15.929"/><use href="#D" y="19.912"/><use href="#E" y="19.912"/><use href="#E" x="3.982" y="19.912"/><use href="#E" x="7.964" y="19.912"/><use href="#E" x="11.947" y="19.912"/><use href="#E" x="15.929" y="19.912"/><use href="#E" x="19.911" y="19.912"/></g><use href="#E" x="23.894" y="19.912" class="B"/><use href="#F" y="19.912" class="C"/><use href="#E" x="31.858" y="19.912" class="B"/><use href="#E" x="35.84" y="19.912" class="C"/><use href="#E" x="39.823" y="19.912" class="B"/><use href="#G" y="19.912" class="C"/><use href="#E" x="47.787" y="19.912" class="B"/><use href="#E" x="51.77" y="19.912" class="C"/><use href="#E" x="55.752" y="19.912" class="B"/><use href="#E" x="59.734" y="19.912" class="C"/><use href="#E" x="63.717" y="19.912" class="B"/><use href="#E" x="67.699" y="19.912" class="C"/><use href="#E" x="71.681" y="19.912" class="B"/><use href="#E" x="75.663" y="19.912" class="C"/><use href="#H" y="19.912" class="B"/><use href="#E" x="83.628" y="19.912" class="C"/><use href="#E" x="87.61" y="19.912" class="B"/><use href="#E" x="91.592" y="19.912" class="C"/><use href="#E" x="95.575" y="19.912" class="B"/><g class="C"><use href="#E" x="99.557" y="19.912"/><use href="#I" y="19.912"/><use href="#I" x="3.982" y="19.912"/><use href="#E" x="111.504" y="19.912"/><use href="#E" x="115.486" y="19.912"/><use href="#I" x="15.929" y="19.912"/><use href="#E" x="123.451" y="19.912"/></g><g class="B"><use href="#D" y="23.894"/><use href="#E" y="23.894"/><use href="#E" x="3.982" y="23.894"/><use href="#E" x="7.964" y="23.894"/><use href="#E" x="11.947" y="23.894"/><use href="#E" x="15.929" y="23.894"/><use href="#E" x="19.911" y="23.894"/><use href="#E" x="23.894" y="23.894"/></g><use href="#F" y="23.894" class="C"/><use href="#E" x="31.858" y="23.894" class="B"/><g class="C"><use href="#E" x="35.84" y="23.894"/><use href="#E" x="39.823" y="23.894"/></g><use href="#G" y="23.894" class="B"/><use href="#E" x="47.787" y="23.894" class="C"/><use href="#E" x="51.77" y="23.894" class="B"/><g class="C"><use href="#E" x="55.752" y="23.894"/><use href="#E" x="59.734" y="23.894"/></g><g class="B"><use href="#E" x="63.717" y="23.894"/><use href="#E" x="67.699" y="23.894"/></g><g class="C"><use href="#E" x="71.681" y="23.894"/><use href="#E" x="75.663" y="23.894"/></g><use href="#H" y="23.894" class="B"/><g class="C"><use href="#E" x="83.628" y="23.894"/><use href="#E" x="87.61" y="23.894"/></g><g class="B"><use href="#E" x="91.592" y="23.894"/><use href="#E" x="95.575" y="23.894"/><use href="#E" x="99.557" y="23.894"/><use href="#I" y="23.894"/><use href="#I" x="3.982" y="23.894"/><use href="#E" x="111.504" y="23.894"/><use href="#E" x="115.486" y="23.894"/><use href="#I" x="15.929" y="23.894"/><use href="#E" x="123.451" y="23.894"/></g><g class="C"><path d="M13.274 41.15H9.292v3.982h3.982V41.15z"/><use href="#J"/></g><use href="#J" x="3.982" class="B"/><g class="C"><use href="#J" x="7.964"/><use href="#J" x="11.947"/></g><use href="#J" x="15.929" class="B"/><use href="#J" x="19.911" class="C"/><g class="B"><use href="#J" x="23.894"/><path d="M45.133 41.15H41.15v3.982h3.982V41.15z"/></g><g class="C"><use href="#J" x="31.858"/><use href="#J" x="35.84"/><use href="#J" x="39.823"/></g><path d="M61.062 41.15H57.08v3.982h3.982V41.15z" class="B"/><use href="#J" x="47.787" class="C"/><g class="B"><use href="#J" x="51.77"/><use href="#J" x="55.752"/><use href="#J" x="59.734"/></g><use href="#J" x="63.717" class="C"/><use href="#J" x="67.699" class="B"/><use href="#J" x="71.681" class="C"/><g class="B"><use href="#J" x="75.663"/><path d="M96.903 41.15H92.92v3.982h3.982V41.15z"/><use href="#J" x="83.628"/></g><g class="C"><use href="#J" x="87.61"/><use href="#J" x="91.592"/></g><use href="#J" x="95.575" class="B"/><use href="#J" x="99.557" class="C"/><g class="B"><use href="#K"/><use href="#K" x="3.982"/><use href="#J" x="111.504"/><use href="#J" x="115.486"/><use href="#K" x="15.929"/></g><use href="#J" x="123.451" class="C"/><use href="#D" y="31.859" class="B"/><use href="#E" y="31.859" class="C"/><use href="#E" x="3.982" y="31.859" class="B"/><use href="#E" x="7.964" y="31.859" class="C"/><g class="B"><use href="#E" x="11.947" y="31.859"/><use href="#E" x="15.929" y="31.859"/><use href="#E" x="19.911" y="31.859"/></g><use href="#E" x="23.894" y="31.859" class="C"/><use href="#F" y="31.859" class="B"/><use href="#E" x="31.858" y="31.859" class="C"/><g class="B"><use href="#E" x="35.84" y="31.859"/><use href="#E" x="39.823" y="31.859"/></g><g class="C"><use href="#G" y="31.859"/><use href="#E" x="47.787" y="31.859"/></g><g class="B"><use href="#E" x="51.77" y="31.859"/><use href="#E" x="55.752" y="31.859"/></g><use href="#E" x="59.734" y="31.859" class="C"/><use href="#E" x="63.717" y="31.859" class="B"/><g class="C"><use href="#E" x="67.699" y="31.859"/><use href="#E" x="71.681" y="31.859"/></g><use href="#E" x="75.663" y="31.859" class="B"/><g class="C"><use href="#H" y="31.859"/><use href="#E" x="83.628" y="31.859"/><use href="#E" x="87.61" y="31.859"/><use href="#E" x="91.592" y="31.859"/></g><g class="B"><use href="#E" x="95.575" y="31.859"/><use href="#E" x="99.557" y="31.859"/></g><g class="C"><use href="#I" y="31.859"/><use href="#I" x="3.982" y="31.859"/></g><use href="#E" x="111.504" y="31.859" class="B"/><g class="C"><use href="#E" x="115.486" y="31.859"/><use href="#I" x="15.929" y="31.859"/></g><use href="#E" x="123.451" y="31.859" class="B"/><g class="C"><use href="#D" y="35.841"/><use href="#E" y="35.841"/></g><g class="B"><use href="#E" x="3.982" y="35.841"/><use href="#E" x="7.964" y="35.841"/></g><use href="#E" x="11.947" y="35.841" class="C"/><use href="#E" x="15.929" y="35.841" class="B"/><g class="C"><use href="#E" x="19.911" y="35.841"/><use href="#E" x="23.894" y="35.841"/><use href="#F" y="35.841"/></g><use href="#E" x="31.858" y="35.841" class="B"/><g class="C"><use href="#E" x="35.84" y="35.841"/><use href="#E" x="39.823" y="35.841"/></g><use href="#G" y="35.841" class="B"/><use href="#E" x="47.787" y="35.841" class="C"/><use href="#E" x="51.77" y="35.841" class="B"/><g class="C"><use href="#E" x="55.752" y="35.841"/><use href="#E" x="59.734" y="35.841"/><use href="#E" x="63.717" y="35.841"/><use href="#E" x="67.699" y="35.841"/></g><use href="#E" x="71.681" y="35.841" class="B"/><g class="C"><use href="#E" x="75.663" y="35.841"/><use href="#H" y="35.841"/></g><use href="#E" x="83.628" y="35.841" class="B"/><use href="#E" x="87.61" y="35.841" class="C"/><use href="#E" x="91.592" y="35.841" class="B"/><use href="#E" x="95.575" y="35.841" class="C"/><g class="B"><use href="#E" x="99.557" y="35.841"/><use href="#I" y="35.841"/><use href="#I" x="3.982" y="35.841"/><use href="#E" x="111.504" y="35.841"/><use href="#E" x="115.486" y="35.841"/></g><g class="C"><use href="#I" x="15.929" y="35.841"/><use href="#E" x="123.451" y="35.841"/></g><use href="#D" y="39.824" class="B"/><g class="C"><use href="#E" y="39.824"/><use href="#E" x="3.982" y="39.824"/></g><g class="B"><use href="#E" x="7.964" y="39.824"/><use href="#E" x="11.947" y="39.824"/><use href="#E" x="15.929" y="39.824"/><use href="#E" x="19.911" y="39.824"/></g><use href="#E" x="23.894" y="39.824" class="C"/><use href="#F" y="39.824" class="B"/><g class="C"><use href="#E" x="31.858" y="39.824"/><use href="#E" x="35.84" y="39.824"/><use href="#E" x="39.823" y="39.824"/><use href="#G" y="39.824"/><use href="#E" x="47.787" y="39.824"/></g><g class="B"><use href="#E" x="51.77" y="39.824"/><use href="#E" x="55.752" y="39.824"/></g><g class="C"><use href="#E" x="59.734" y="39.824"/><use href="#E" x="63.717" y="39.824"/></g><g class="B"><use href="#E" x="67.699" y="39.824"/><use href="#E" x="71.681" y="39.824"/><use href="#E" x="75.663" y="39.824"/><use href="#H" y="39.824"/></g><use href="#E" x="83.628" y="39.824" class="C"/><use href="#E" x="87.61" y="39.824" class="B"/><use href="#E" x="91.592" y="39.824" class="C"/><use href="#E" x="95.575" y="39.824" class="B"/><use href="#E" x="99.557" y="39.824" class="C"/><use href="#I" y="39.824" class="B"/><g class="C"><use href="#I" x="3.982" y="39.824"/><use href="#E" x="111.504" y="39.824"/><use href="#E" x="115.486" y="39.824"/></g><g class="B"><use href="#I" x="15.929" y="39.824"/><use href="#E" x="123.451" y="39.824"/><path d="M13.274 57.08H9.292v3.982h3.982V57.08z"/><use href="#L"/><use href="#L" x="3.982"/></g><g class="C"><use href="#L" x="7.964"/><use href="#L" x="11.947"/><use href="#L" x="15.929"/><use href="#L" x="19.911"/></g><use href="#L" x="23.894" class="B"/><g class="C"><path d="M45.133 57.08H41.15v3.982h3.982V57.08z"/><use href="#L" x="31.858"/></g><use href="#L" x="35.84" class="B"/><g class="C"><use href="#L" x="39.823"/><path d="M61.062 57.08H57.08v3.982h3.982V57.08z"/><use href="#L" x="47.787"/></g><use href="#L" x="51.77" class="B"/><g class="C"><use href="#L" x="55.752"/><use href="#L" x="59.734"/></g><g class="B"><use href="#L" x="63.717"/><use href="#L" x="67.699"/></g><use href="#L" x="71.681" class="C"/><g class="B"><use href="#L" x="75.663"/><path d="M96.903 57.08H92.92v3.982h3.982V57.08z"/><use href="#L" x="83.628"/><use href="#L" x="87.61"/></g><use href="#L" x="91.592" class="C"/><use href="#L" x="95.575" class="B"/><g class="C"><use href="#L" x="99.557"/><use href="#M"/></g><g class="B"><use href="#M" x="3.982"/><use href="#L" x="111.504"/><use href="#L" x="115.486"/></g><g class="C"><use href="#M" x="15.929"/><use href="#L" x="123.451"/><use href="#D" y="47.788"/><use href="#E" y="47.788"/><use href="#E" x="3.982" y="47.788"/></g><g class="B"><use href="#E" x="7.964" y="47.788"/><use href="#E" x="11.947" y="47.788"/></g><use href="#E" x="15.929" y="47.788" class="C"/><g class="B"><use href="#E" x="19.911" y="47.788"/><use href="#E" x="23.894" y="47.788"/><use href="#F" y="47.788"/><use href="#E" x="31.858" y="47.788"/><use href="#E" x="35.84" y="47.788"/><use href="#E" x="39.823" y="47.788"/><use href="#G" y="47.788"/></g><g class="C"><use href="#E" x="47.787" y="47.788"/><use href="#E" x="51.77" y="47.788"/></g><use href="#E" x="55.752" y="47.788" class="B"/><use href="#E" x="59.734" y="47.788" class="C"/><use href="#E" x="63.717" y="47.788" class="B"/><use href="#E" x="67.699" y="47.788" class="C"/><g class="B"><use href="#E" x="71.681" y="47.788"/><use href="#E" x="75.663" y="47.788"/><use href="#H" y="47.788"/></g><g class="C"><use href="#E" x="83.628" y="47.788"/><use href="#E" x="87.61" y="47.788"/></g><use href="#E" x="91.592" y="47.788" class="B"/><use href="#E" x="95.575" y="47.788" class="C"/><use href="#E" x="99.557" y="47.788" class="B"/><use href="#I" y="47.788" class="C"/><g class="B"><use href="#I" x="3.982" y="47.788"/><use href="#E" x="111.504" y="47.788"/><use href="#E" x="115.486" y="47.788"/><use href="#I" x="15.929" y="47.788"/><use href="#E" x="123.451" y="47.788"/></g><g class="C"><use href="#D" y="51.77"/><use href="#E" y="51.77"/></g><use href="#E" x="3.982" y="51.77" class="B"/><g class="C"><use href="#E" x="7.964" y="51.77"/><use href="#E" x="11.947" y="51.77"/><use href="#E" x="15.929" y="51.77"/><use href="#E" x="19.911" y="51.77"/></g><use href="#E" x="23.894" y="51.77" class="B"/><g class="C"><use href="#F" y="51.77"/><use href="#E" x="31.858" y="51.77"/><use href="#E" x="35.84" y="51.77"/><use href="#E" x="39.823" y="51.77"/><use href="#G" y="51.77"/><use href="#E" x="47.787" y="51.77"/></g><g class="B"><use href="#E" x="51.77" y="51.77"/><use href="#E" x="55.752" y="51.77"/></g><g class="C"><use href="#E" x="59.734" y="51.77"/><use href="#E" x="63.717" y="51.77"/></g><use href="#E" x="67.699" y="51.77" class="B"/><use href="#E" x="71.681" y="51.77" class="C"/><use href="#E" x="75.663" y="51.77" class="B"/><use href="#H" y="51.77" class="C"/><g class="B"><use href="#E" x="83.628" y="51.77"/><use href="#E" x="87.61" y="51.77"/></g><g class="C"><use href="#E" x="91.592" y="51.77"/><use href="#E" x="95.575" y="51.77"/><use href="#E" x="99.557" y="51.77"/><use href="#I" y="51.77"/></g><g class="B"><use href="#I" x="3.982" y="51.77"/><use href="#E" x="111.504" y="51.77"/><use href="#E" x="115.486" y="51.77"/><use href="#I" x="15.929" y="51.77"/><use href="#E" x="123.451" y="51.77"/><use href="#D" y="55.752"/><use href="#E" y="55.752"/></g><g class="C"><use href="#E" x="3.982" y="55.752"/><use href="#E" x="7.964" y="55.752"/></g><g class="B"><use href="#E" x="11.947" y="55.752"/><use href="#E" x="15.929" y="55.752"/><use href="#E" x="19.911" y="55.752"/><use href="#E" x="23.894" y="55.752"/></g><use href="#F" y="55.752" class="C"/><g class="B"><use href="#E" x="31.858" y="55.752"/><use href="#E" x="35.84" y="55.752"/></g><use href="#E" x="39.823" y="55.752" class="C"/><g class="B"><use href="#G" y="55.752"/><use href="#E" x="47.787" y="55.752"/><use href="#E" x="51.77" y="55.752"/></g><use href="#E" x="55.752" y="55.752" class="C"/><g class="B"><use href="#E" x="59.734" y="55.752"/><use href="#E" x="63.717" y="55.752"/></g><g class="C"><use href="#E" x="67.699" y="55.752"/><use href="#E" x="71.681" y="55.752"/><use href="#E" x="75.663" y="55.752"/></g><use href="#H" y="55.752" class="B"/><g class="C"><use href="#E" x="83.628" y="55.752"/><use href="#E" x="87.61" y="55.752"/></g><use href="#E" x="91.592" y="55.752" class="B"/><use href="#E" x="95.575" y="55.752" class="C"/><g class="B"><use href="#E" x="99.557" y="55.752"/><use href="#I" y="55.752"/></g><use href="#I" x="3.982" y="55.752" class="C"/><use href="#E" x="111.504" y="55.752" class="B"/><use href="#E" x="115.486" y="55.752" class="C"/><use href="#I" x="15.929" y="55.752" class="B"/><use href="#E" x="123.451" y="55.752" class="C"/><use href="#D" y="59.735" class="B"/><g class="C"><use href="#E" y="59.735"/><use href="#E" x="3.982" y="59.735"/><use href="#E" x="7.964" y="59.735"/><use href="#E" x="11.947" y="59.735"/></g><use href="#E" x="15.929" y="59.735" class="B"/><use href="#E" x="19.911" y="59.735" class="C"/><g class="B"><use href="#E" x="23.894" y="59.735"/><use href="#F" y="59.735"/><use href="#E" x="31.858" y="59.735"/><use href="#E" x="35.84" y="59.735"/><use href="#E" x="39.823" y="59.735"/><use href="#G" y="59.735"/><use href="#E" x="47.787" y="59.735"/></g><use href="#E" x="51.77" y="59.735" class="C"/><g class="B"><use href="#E" x="55.752" y="59.735"/><use href="#E" x="59.734" y="59.735"/></g><use href="#E" x="63.717" y="59.735" class="C"/><g class="B"><use href="#E" x="67.699" y="59.735"/><use href="#E" x="71.681" y="59.735"/></g><use href="#E" x="75.663" y="59.735" class="C"/><use href="#H" y="59.735" class="B"/><use href="#E" x="83.628" y="59.735" class="C"/><use href="#E" x="87.61" y="59.735" class="B"/><use href="#E" x="91.592" y="59.735" class="C"/><use href="#E" x="95.575" y="59.735" class="B"/><g class="C"><use href="#E" x="99.557" y="59.735"/><use href="#I" y="59.735"/><use href="#I" x="3.982" y="59.735"/><use href="#E" x="111.504" y="59.735"/></g><use href="#E" x="115.486" y="59.735" class="B"/><g class="C"><use href="#I" x="15.929" y="59.735"/><use href="#E" x="123.451" y="59.735"/></g><g class="B"><use href="#D" y="63.717"/><use href="#E" y="63.717"/><use href="#E" x="3.982" y="63.717"/><use href="#E" x="7.964" y="63.717"/><use href="#E" x="11.947" y="63.717"/></g><use href="#E" x="15.929" y="63.717" class="C"/><use href="#E" x="19.911" y="63.717" class="B"/><g class="C"><use href="#E" x="23.894" y="63.717"/><use href="#F" y="63.717"/><use href="#E" x="31.858" y="63.717"/><use href="#E" x="35.84" y="63.717"/><use href="#E" x="39.823" y="63.717"/><use href="#G" y="63.717"/><use href="#E" x="47.787" y="63.717"/><use href="#E" x="51.77" y="63.717"/></g><use href="#E" x="55.752" y="63.717" class="B"/><use href="#E" x="59.734" y="63.717" class="C"/><g class="B"><use href="#E" x="63.717" y="63.717"/><use href="#E" x="67.699" y="63.717"/></g><g class="C"><use href="#E" x="71.681" y="63.717"/><use href="#E" x="75.663" y="63.717"/><use href="#H" y="63.717"/></g><g class="B"><use href="#E" x="83.628" y="63.717"/><use href="#E" x="87.61" y="63.717"/><use href="#E" x="91.592" y="63.717"/><use href="#E" x="95.575" y="63.717"/></g><g class="C"><use href="#E" x="99.557" y="63.717"/><use href="#I" y="63.717"/><use href="#I" x="3.982" y="63.717"/></g><g class="B"><use href="#E" x="111.504" y="63.717"/><use href="#E" x="115.486" y="63.717"/></g><g class="C"><use href="#I" x="15.929" y="63.717"/><use href="#E" x="123.451" y="63.717"/><use href="#D" y="67.7"/><use href="#E" y="67.7"/></g><use href="#E" x="3.982" y="67.7" class="B"/><use href="#E" x="7.964" y="67.7" class="C"/><g class="B"><use href="#E" x="11.947" y="67.7"/><use href="#E" x="15.929" y="67.7"/></g><g class="C"><use href="#E" x="19.911" y="67.7"/><use href="#E" x="23.894" y="67.7"/></g><g class="B"><use href="#F" y="67.7"/><use href="#E" x="31.858" y="67.7"/></g><g class="C"><use href="#E" x="35.84" y="67.7"/><use href="#E" x="39.823" y="67.7"/></g><g class="B"><use href="#G" y="67.7"/><use href="#E" x="47.787" y="67.7"/><use href="#E" x="51.77" y="67.7"/></g><use href="#E" x="55.752" y="67.7" class="C"/><g class="B"><use href="#E" x="59.734" y="67.7"/><use href="#E" x="63.717" y="67.7"/><use href="#E" x="67.699" y="67.7"/></g><use href="#E" x="71.681" y="67.7" class="C"/><g class="B"><use href="#E" x="75.663" y="67.7"/><use href="#H" y="67.7"/></g><g class="C"><use href="#E" x="83.628" y="67.7"/><use href="#E" x="87.61" y="67.7"/></g><g class="B"><use href="#E" x="91.592" y="67.7"/><use href="#E" x="95.575" y="67.7"/><use href="#E" x="99.557" y="67.7"/><use href="#I" y="67.7"/></g><use href="#I" x="3.982" y="67.7" class="C"/><g class="B"><use href="#E" x="111.504" y="67.7"/><use href="#E" x="115.486" y="67.7"/><use href="#I" x="15.929" y="67.7"/></g><use href="#E" x="123.451" y="67.7" class="C"/><g class="B"><use href="#D" y="71.682"/><use href="#E" y="71.682"/><use href="#E" x="3.982" y="71.682"/></g><use href="#E" x="7.964" y="71.682" class="C"/><g class="B"><use href="#E" x="11.947" y="71.682"/><use href="#E" x="15.929" y="71.682"/><use href="#E" x="19.911" y="71.682"/><use href="#E" x="23.894" y="71.682"/></g><g class="C"><use href="#F" y="71.682"/><use href="#E" x="31.858" y="71.682"/><use href="#E" x="35.84" y="71.682"/></g><use href="#E" x="39.823" y="71.682" class="B"/><use href="#G" y="71.682" class="C"/><use href="#E" x="47.787" y="71.682" class="B"/><use href="#E" x="51.77" y="71.682" class="C"/><use href="#E" x="55.752" y="71.682" class="B"/><use href="#E" x="59.734" y="71.682" class="C"/><g class="B"><use href="#E" x="63.717" y="71.682"/><use href="#E" x="67.699" y="71.682"/></g><use href="#E" x="71.681" y="71.682" class="C"/><g class="B"><use href="#E" x="75.663" y="71.682"/><use href="#H" y="71.682"/><use href="#E" x="83.628" y="71.682"/><use href="#E" x="87.61" y="71.682"/></g><g class="C"><use href="#E" x="91.592" y="71.682"/><use href="#E" x="95.575" y="71.682"/></g><g class="B"><use href="#E" x="99.557" y="71.682"/><use href="#I" y="71.682"/></g><use href="#I" x="3.982" y="71.682" class="C"/><use href="#E" x="111.504" y="71.682" class="B"/><g class="C"><use href="#E" x="115.486" y="71.682"/><use href="#I" x="15.929" y="71.682"/><use href="#E" x="123.451" y="71.682"/></g><g class="B"><use href="#D" y="75.665"/><use href="#E" y="75.665"/><use href="#E" x="3.982" y="75.665"/><use href="#E" x="7.964" y="75.665"/></g><use href="#E" x="11.947" y="75.665" class="C"/><use href="#E" x="15.929" y="75.665" class="B"/><use href="#E" x="19.911" y="75.665" class="C"/><use href="#E" x="23.894" y="75.665" class="B"/><g class="C"><use href="#F" y="75.665"/><use href="#E" x="31.858" y="75.665"/><use href="#E" x="35.84" y="75.665"/></g><use href="#E" x="39.823" y="75.665" class="B"/><g class="C"><use href="#G" y="75.665"/><use href="#E" x="47.787" y="75.665"/><use href="#E" x="51.77" y="75.665"/><use href="#E" x="55.752" y="75.665"/><use href="#E" x="59.734" y="75.665"/><use href="#E" x="63.717" y="75.665"/></g><use href="#E" x="67.699" y="75.665" class="B"/><use href="#E" x="71.681" y="75.665" class="C"/><use href="#E" x="75.663" y="75.665" class="B"/><use href="#H" y="75.665" class="C"/><use href="#E" x="83.628" y="75.665" class="B"/><g class="C"><use href="#E" x="87.61" y="75.665"/><use href="#E" x="91.592" y="75.665"/></g><g class="B"><use href="#E" x="95.575" y="75.665"/><use href="#E" x="99.557" y="75.665"/></g><use href="#I" y="75.665" class="C"/><g class="B"><use href="#I" x="3.982" y="75.665"/><use href="#E" x="111.504" y="75.665"/><use href="#E" x="115.486" y="75.665"/><use href="#I" x="15.929" y="75.665"/><use href="#E" x="123.451" y="75.665"/></g><path d="M13.274 92.92H9.292v3.982h3.982V92.92z" class="C"/><use href="#N" class="B"/><use href="#N" x="3.982" class="C"/><use href="#N" x="7.964" class="B"/><use href="#N" x="11.947" class="C"/><g class="B"><use href="#N" x="15.929"/><use href="#N" x="19.911"/></g><g class="C"><use href="#N" x="23.894"/><path d="M45.133 92.92H41.15v3.982h3.982V92.92z"/><use href="#N" x="31.858"/><use href="#N" x="35.84"/></g><g class="B"><use href="#N" x="39.823"/><path d="M61.062 92.92H57.08v3.982h3.982V92.92z"/><use href="#N" x="47.787"/></g><g class="C"><use href="#N" x="51.77"/><use href="#N" x="55.752"/></g><g class="B"><use href="#N" x="59.734"/><use href="#N" x="63.717"/><use href="#N" x="67.699"/></g><use href="#N" x="71.681" class="C"/><g class="B"><use href="#N" x="75.663"/><path d="M96.903 92.92H92.92v3.982h3.982V92.92z"/><use href="#N" x="83.628"/></g><use href="#N" x="87.61" class="C"/><g class="B"><use href="#N" x="91.592"/><use href="#N" x="95.575"/><use href="#N" x="99.557"/></g><g class="C"><use href="#O"/><use href="#O" x="3.982"/><use href="#N" x="111.504"/></g><use href="#N" x="115.486" class="B"/><use href="#O" x="15.929" class="C"/><use href="#N" x="123.451" class="B"/><use href="#P" class="C"/><g class="B"><use href="#Q"/><use href="#Q" x="3.982"/><use href="#Q" x="7.964"/></g><use href="#Q" x="11.947" class="C"/><use href="#Q" x="15.929" class="B"/><use href="#Q" x="19.911" class="C"/><use href="#Q" x="23.894" class="B"/><g class="C"><use href="#R"/><use href="#Q" x="31.858"/><use href="#Q" x="35.84"/></g><use href="#Q" x="39.823" class="B"/><use href="#S" class="C"/><use href="#Q" x="47.787" class="B"/><g class="C"><use href="#Q" x="51.77"/><use href="#Q" x="55.752"/><use href="#Q" x="59.734"/><use href="#Q" x="63.717"/><use href="#Q" x="67.699"/></g><g class="B"><use href="#Q" x="71.681"/><use href="#Q" x="75.663"/><use href="#T"/></g><g class="C"><use href="#Q" x="83.628"/><use href="#Q" x="87.61"/><use href="#Q" x="91.592"/><use href="#Q" x="95.575"/></g><g class="B"><use href="#Q" x="99.557"/><use href="#U"/></g><use href="#U" x="3.982" class="C"/><g class="B"><use href="#Q" x="111.504"/><use href="#Q" x="115.486"/></g><g class="C"><use href="#U" x="15.929"/><use href="#Q" x="123.451"/><use href="#D" y="87.611"/></g><use href="#E" y="87.611" class="B"/><g class="C"><use href="#E" x="3.982" y="87.611"/><use href="#E" x="7.964" y="87.611"/><use href="#E" x="11.947" y="87.611"/><use href="#E" x="15.929" y="87.611"/></g><g class="B"><use href="#E" x="19.911" y="87.611"/><use href="#E" x="23.894" y="87.611"/></g><g class="C"><use href="#F" y="87.611"/><use href="#E" x="31.858" y="87.611"/><use href="#E" x="35.84" y="87.611"/></g><g class="B"><use href="#E" x="39.823" y="87.611"/><use href="#G" y="87.611"/><use href="#E" x="47.787" y="87.611"/></g><use href="#E" x="51.77" y="87.611" class="C"/><g class="B"><use href="#E" x="55.752" y="87.611"/><use href="#E" x="59.734" y="87.611"/></g><use href="#E" x="63.717" y="87.611" class="C"/><use href="#E" x="67.699" y="87.611" class="B"/><g class="C"><use href="#E" x="71.681" y="87.611"/><use href="#E" x="75.663" y="87.611"/></g><g class="B"><use href="#H" y="87.611"/><use href="#E" x="83.628" y="87.611"/></g><use href="#E" x="87.61" y="87.611" class="C"/><use href="#E" x="91.592" y="87.611" class="B"/><g class="C"><use href="#E" x="95.575" y="87.611"/><use href="#E" x="99.557" y="87.611"/></g><use href="#I" y="87.611" class="B"/><use href="#I" x="3.982" y="87.611" class="C"/><use href="#E" x="111.504" y="87.611" class="B"/><use href="#E" x="115.486" y="87.611" class="C"/><g class="B"><use href="#I" x="15.929" y="87.611"/><use href="#E" x="123.451" y="87.611"/></g><g class="C"><use href="#D" y="91.593"/><use href="#E" y="91.593"/></g><use href="#E" x="3.982" y="91.593" class="B"/><use href="#E" x="7.964" y="91.593" class="C"/><use href="#E" x="11.947" y="91.593" class="B"/><g class="C"><use href="#E" x="15.929" y="91.593"/><use href="#E" x="19.911" y="91.593"/></g><use href="#E" x="23.894" y="91.593" class="B"/><g class="C"><use href="#F" y="91.593"/><use href="#E" x="31.858" y="91.593"/></g><g class="B"><use href="#E" x="35.84" y="91.593"/><use href="#E" x="39.823" y="91.593"/><use href="#G" y="91.593"/></g><g class="C"><use href="#E" x="47.787" y="91.593"/><use href="#E" x="51.77" y="91.593"/><use href="#E" x="55.752" y="91.593"/></g><g class="B"><use href="#E" x="59.734" y="91.593"/><use href="#E" x="63.717" y="91.593"/><use href="#E" x="67.699" y="91.593"/></g><use href="#E" x="71.681" y="91.593" class="C"/><g class="B"><use href="#E" x="75.663" y="91.593"/><use href="#H" y="91.593"/></g><use href="#E" x="83.628" y="91.593" class="C"/><use href="#E" x="87.61" y="91.593" class="B"/><g class="C"><use href="#E" x="91.592" y="91.593"/><use href="#E" x="95.575" y="91.593"/><use href="#E" x="99.557" y="91.593"/><use href="#I" y="91.593"/><use href="#I" x="3.982" y="91.593"/><use href="#E" x="111.504" y="91.593"/></g><use href="#E" x="115.486" y="91.593" class="B"/><use href="#I" x="15.929" y="91.593" class="C"/><g class="B"><use href="#E" x="123.451" y="91.593"/><use href="#D" y="95.576"/><use href="#E" y="95.576"/><use href="#E" x="3.982" y="95.576"/><use href="#E" x="7.964" y="95.576"/><use href="#E" x="11.947" y="95.576"/><use href="#E" x="15.929" y="95.576"/><use href="#E" x="19.911" y="95.576"/><use href="#E" x="23.894" y="95.576"/></g><g class="C"><use href="#F" y="95.576"/><use href="#E" x="31.858" y="95.576"/><use href="#E" x="35.84" y="95.576"/></g><use href="#E" x="39.823" y="95.576" class="B"/><use href="#G" y="95.576" class="C"/><g class="B"><use href="#E" x="47.787" y="95.576"/><use href="#E" x="51.77" y="95.576"/></g><g class="C"><use href="#E" x="55.752" y="95.576"/><use href="#E" x="59.734" y="95.576"/></g><g class="B"><use href="#E" x="63.717" y="95.576"/><use href="#E" x="67.699" y="95.576"/><use href="#E" x="71.681" y="95.576"/><use href="#E" x="75.663" y="95.576"/></g><use href="#H" y="95.576" class="C"/><g class="B"><use href="#E" x="83.628" y="95.576"/><use href="#E" x="87.61" y="95.576"/></g><use href="#E" x="91.592" y="95.576" class="C"/><g class="B"><use href="#E" x="95.575" y="95.576"/><use href="#E" x="99.557" y="95.576"/><use href="#I" y="95.576"/></g><use href="#I" x="3.982" y="95.576" class="C"/><g class="B"><use href="#E" x="111.504" y="95.576"/><use href="#E" x="115.486" y="95.576"/></g><use href="#I" x="15.929" y="95.576" class="C"/><use href="#E" x="123.451" y="95.576" class="B"/><g class="C"><use href="#D" y="99.558"/><use href="#E" y="99.558"/><use href="#E" x="3.982" y="99.558"/><use href="#E" x="7.964" y="99.558"/><use href="#E" x="11.947" y="99.558"/><use href="#E" x="15.929" y="99.558"/><use href="#E" x="19.911" y="99.558"/></g><g class="B"><use href="#E" x="23.894" y="99.558"/><use href="#F" y="99.558"/></g><g class="C"><use href="#E" x="31.858" y="99.558"/><use href="#E" x="35.84" y="99.558"/></g><g class="B"><use href="#E" x="39.823" y="99.558"/><use href="#G" y="99.558"/><use href="#E" x="47.787" y="99.558"/></g><g class="C"><use href="#E" x="51.77" y="99.558"/><use href="#E" x="55.752" y="99.558"/><use href="#E" x="59.734" y="99.558"/><use href="#E" x="63.717" y="99.558"/><use href="#E" x="67.699" y="99.558"/><use href="#E" x="71.681" y="99.558"/><use href="#E" x="75.663" y="99.558"/></g><g class="B"><use href="#H" y="99.558"/><use href="#E" x="83.628" y="99.558"/></g><g class="C"><use href="#E" x="87.61" y="99.558"/><use href="#E" x="91.592" y="99.558"/></g><use href="#E" x="95.575" y="99.558" class="B"/><use href="#E" x="99.557" y="99.558" class="C"/><use href="#I" y="99.558" class="B"/><g class="C"><use href="#I" x="3.982" y="99.558"/><use href="#E" x="111.504" y="99.558"/><use href="#E" x="115.486" y="99.558"/></g><g class="B"><use href="#I" x="15.929" y="99.558"/><use href="#E" x="123.451" y="99.558"/></g><use href="#P" y="19.912" class="C"/><g class="B"><use href="#Q" y="19.912"/><use href="#Q" x="3.982" y="19.912"/><use href="#Q" x="7.964" y="19.912"/><use href="#Q" x="11.947" y="19.912"/><use href="#Q" x="15.929" y="19.912"/></g><use href="#Q" x="19.911" y="19.912" class="C"/><g class="B"><use href="#Q" x="23.894" y="19.912"/><use href="#R" y="19.912"/></g><g class="C"><use href="#Q" x="31.858" y="19.912"/><use href="#Q" x="35.84" y="19.912"/></g><use href="#Q" x="39.823" y="19.912" class="B"/><g class="C"><use href="#S" y="19.912"/><use href="#Q" x="47.787" y="19.912"/><use href="#Q" x="51.77" y="19.912"/><use href="#Q" x="55.752" y="19.912"/><use href="#Q" x="59.734" y="19.912"/></g><use href="#Q" x="63.717" y="19.912" class="B"/><use href="#Q" x="67.699" y="19.912" class="C"/><use href="#Q" x="71.681" y="19.912" class="B"/><use href="#Q" x="75.663" y="19.912" class="C"/><g class="B"><use href="#T" y="19.912"/><use href="#Q" x="83.628" y="19.912"/></g><g class="C"><use href="#Q" x="87.61" y="19.912"/><use href="#Q" x="91.592" y="19.912"/></g><g class="B"><use href="#Q" x="95.575" y="19.912"/><use href="#Q" x="99.557" y="19.912"/><use href="#U" y="19.912"/></g><g class="C"><use href="#U" x="3.982" y="19.912"/><use href="#Q" x="111.504" y="19.912"/><use href="#Q" x="115.486" y="19.912"/><use href="#U" x="15.929" y="19.912"/></g><use href="#Q" x="123.451" y="19.912" class="B"/><use href="#D" y="107.523" class="C"/><use href="#E" y="107.523" class="B"/><g class="C"><use href="#E" x="3.982" y="107.523"/><use href="#E" x="7.964" y="107.523"/><use href="#E" x="11.947" y="107.523"/></g><use href="#E" x="15.929" y="107.523" class="B"/><use href="#E" x="19.911" y="107.523" class="C"/><use href="#E" x="23.894" y="107.523" class="B"/><g class="C"><use href="#F" y="107.523"/><use href="#E" x="31.858" y="107.523"/><use href="#E" x="35.84" y="107.523"/><use href="#E" x="39.823" y="107.523"/><use href="#G" y="107.523"/></g><g class="B"><use href="#E" x="47.787" y="107.523"/><use href="#E" x="51.77" y="107.523"/></g><g class="C"><use href="#E" x="55.752" y="107.523"/><use href="#E" x="59.734" y="107.523"/></g><use href="#E" x="63.717" y="107.523" class="B"/><g class="C"><use href="#E" x="67.699" y="107.523"/><use href="#E" x="71.681" y="107.523"/><use href="#E" x="75.663" y="107.523"/></g><use href="#H" y="107.523" class="B"/><g class="C"><use href="#E" x="83.628" y="107.523"/><use href="#E" x="87.61" y="107.523"/><use href="#E" x="91.592" y="107.523"/><use href="#E" x="95.575" y="107.523"/><use href="#E" x="99.557" y="107.523"/><use href="#I" y="107.523"/><use href="#I" x="3.982" y="107.523"/><use href="#E" x="111.504" y="107.523"/></g><use href="#E" x="115.486" y="107.523" class="B"/><g class="C"><use href="#I" x="15.929" y="107.523"/><use href="#E" x="123.451" y="107.523"/><use href="#P" y="27.876"/></g><use href="#Q" y="27.876" class="B"/><g class="C"><use href="#Q" x="3.982" y="27.876"/><use href="#Q" x="7.964" y="27.876"/><use href="#Q" x="11.947" y="27.876"/></g><use href="#Q" x="15.929" y="27.876" class="B"/><use href="#Q" x="19.911" y="27.876" class="C"/><use href="#Q" x="23.894" y="27.876" class="B"/><use href="#R" y="27.876" class="C"/><use href="#Q" x="31.858" y="27.876" class="B"/><g class="C"><use href="#Q" x="35.84" y="27.876"/><use href="#Q" x="39.823" y="27.876"/></g><g class="B"><use href="#S" y="27.876"/><use href="#Q" x="47.787" y="27.876"/><use href="#Q" x="51.77" y="27.876"/></g><use href="#Q" x="55.752" y="27.876" class="C"/><g class="B"><use href="#Q" x="59.734" y="27.876"/><use href="#Q" x="63.717" y="27.876"/><use href="#Q" x="67.699" y="27.876"/></g><g class="C"><use href="#Q" x="71.681" y="27.876"/><use href="#Q" x="75.663" y="27.876"/></g><g class="B"><use href="#T" y="27.876"/><use href="#Q" x="83.628" y="27.876"/><use href="#Q" x="87.61" y="27.876"/></g><g class="C"><use href="#Q" x="91.592" y="27.876"/><use href="#Q" x="95.575" y="27.876"/></g><g class="B"><use href="#Q" x="99.557" y="27.876"/><use href="#U" y="27.876"/><use href="#U" x="3.982" y="27.876"/></g><g class="C"><use href="#Q" x="111.504" y="27.876"/><use href="#Q" x="115.486" y="27.876"/><use href="#U" x="15.929" y="27.876"/><use href="#Q" x="123.451" y="27.876"/><use href="#D" y="115.487"/></g><use href="#E" y="115.487" class="B"/><g class="C"><use href="#E" x="3.982" y="115.487"/><use href="#E" x="7.964" y="115.487"/><use href="#E" x="11.947" y="115.487"/></g><use href="#E" x="15.929" y="115.487" class="B"/><use href="#E" x="19.911" y="115.487" class="C"/><g class="B"><use href="#E" x="23.894" y="115.487"/><use href="#F" y="115.487"/><use href="#E" x="31.858" y="115.487"/></g><use href="#E" x="35.84" y="115.487" class="C"/><use href="#E" x="39.823" y="115.487" class="B"/><g class="C"><use href="#G" y="115.487"/><use href="#E" x="47.787" y="115.487"/><use href="#E" x="51.77" y="115.487"/><use href="#E" x="55.752" y="115.487"/><use href="#E" x="59.734" y="115.487"/><use href="#E" x="63.717" y="115.487"/></g><use href="#E" x="67.699" y="115.487" class="B"/><g class="C"><use href="#E" x="71.681" y="115.487"/><use href="#E" x="75.663" y="115.487"/><use href="#H" y="115.487"/></g><g class="B"><use href="#E" x="83.628" y="115.487"/><use href="#E" x="87.61" y="115.487"/></g><g class="C"><use href="#E" x="91.592" y="115.487"/><use href="#E" x="95.575" y="115.487"/></g><g class="B"><use href="#E" x="99.557" y="115.487"/><use href="#I" y="115.487"/></g><use href="#I" x="3.982" y="115.487" class="C"/><g class="B"><use href="#E" x="111.504" y="115.487"/><use href="#E" x="115.486" y="115.487"/></g><g class="C"><use href="#I" x="15.929" y="115.487"/><use href="#E" x="123.451" y="115.487"/><use href="#D" y="119.469"/></g><g class="B"><use href="#E" y="119.469"/><use href="#E" x="3.982" y="119.469"/><use href="#E" x="7.964" y="119.469"/><use href="#E" x="11.947" y="119.469"/><use href="#E" x="15.929" y="119.469"/></g><use href="#E" x="19.911" y="119.469" class="C"/><use href="#E" x="23.894" y="119.469" class="B"/><g class="C"><use href="#F" y="119.469"/><use href="#E" x="31.858" y="119.469"/></g><use href="#E" x="35.84" y="119.469" class="B"/><use href="#E" x="39.823" y="119.469" class="C"/><use href="#G" y="119.469" class="B"/><use href="#E" x="47.787" y="119.469" class="C"/><g class="B"><use href="#E" x="51.77" y="119.469"/><use href="#E" x="55.752" y="119.469"/></g><use href="#E" x="59.734" y="119.469" class="C"/><g class="B"><use href="#E" x="63.717" y="119.469"/><use href="#E" x="67.699" y="119.469"/></g><g class="C"><use href="#E" x="71.681" y="119.469"/><use href="#E" x="75.663" y="119.469"/></g><use href="#H" y="119.469" class="B"/><use href="#E" x="83.628" y="119.469" class="C"/><g class="B"><use href="#E" x="87.61" y="119.469"/><use href="#E" x="91.592" y="119.469"/><use href="#E" x="95.575" y="119.469"/><use href="#E" x="99.557" y="119.469"/></g><use href="#I" y="119.469" class="C"/><use href="#I" x="3.982" y="119.469" class="B"/><g class="C"><use href="#E" x="111.504" y="119.469"/><use href="#E" x="115.486" y="119.469"/><use href="#I" x="15.929" y="119.469"/><use href="#E" x="123.451" y="119.469"/><use href="#D" y="123.452"/><use href="#E" y="123.452"/><use href="#E" x="3.982" y="123.452"/><use href="#E" x="7.964" y="123.452"/><use href="#E" x="11.947" y="123.452"/><use href="#E" x="15.929" y="123.452"/><use href="#E" x="19.911" y="123.452"/></g><use href="#E" x="23.894" y="123.452" class="B"/><use href="#F" y="123.452" class="C"/><use href="#E" x="31.858" y="123.452" class="B"/><g class="C"><use href="#E" x="35.84" y="123.452"/><use href="#E" x="39.823" y="123.452"/></g><use href="#G" y="123.452" class="B"/><use href="#E" x="47.787" y="123.452" class="C"/><use href="#E" x="51.77" y="123.452" class="B"/><use href="#E" x="55.752" y="123.452" class="C"/><use href="#E" x="59.734" y="123.452" class="B"/><use href="#E" x="63.717" y="123.452" class="C"/><use href="#E" x="67.699" y="123.452" class="B"/><g class="C"><use href="#E" x="71.681" y="123.452"/><use href="#E" x="75.663" y="123.452"/></g><g class="B"><use href="#H" y="123.452"/><use href="#E" x="83.628" y="123.452"/></g><g class="C"><use href="#E" x="87.61" y="123.452"/><use href="#E" x="91.592" y="123.452"/><use href="#E" x="95.575" y="123.452"/><use href="#E" x="99.557" y="123.452"/><use href="#I" y="123.452"/></g><g class="B"><use href="#I" x="3.982" y="123.452"/><use href="#E" x="111.504" y="123.452"/><use href="#E" x="115.486" y="123.452"/><use href="#I" x="15.929" y="123.452"/><use href="#E" x="123.451" y="123.452"/></g><defs ><path id="B" d="M17.257 9.292h-3.982v3.982h3.982V9.292z"/><path id="C" d="M120.797 9.292h-3.983v3.982h3.983V9.292z"/><path id="D" d="M13.274 13.274H9.292v3.982h3.982v-3.982z"/><path id="E" d="M17.257 13.274h-3.982v3.982h3.982v-3.982z"/><path id="F" d="M45.133 13.274H41.15v3.982h3.982v-3.982z"/><path id="G" d="M61.062 13.274H57.08v3.982h3.982v-3.982z"/><path id="H" d="M96.903 13.274H92.92v3.982h3.982v-3.982z"/><path id="I" d="M120.797 13.274h-3.983v3.982h3.983v-3.982z"/><path id="J" d="M17.257 41.15h-3.982v3.982h3.982V41.15z"/><path id="K" d="M120.797 41.15h-3.983v3.982h3.983V41.15z"/><path id="L" d="M17.257 57.08h-3.982v3.982h3.982V57.08z"/><path id="M" d="M120.797 57.08h-3.983v3.982h3.983V57.08z"/><path id="N" d="M17.257 92.92h-3.982v3.982h3.982V92.92z"/><path id="O" d="M120.797 92.92h-3.983v3.982h3.983V92.92z"/><path id="P" d="M13.274 96.902H9.292v3.983h3.982v-3.983z"/><path id="Q" d="M17.257 96.902h-3.982v3.983h3.982v-3.983z"/><path id="R" d="M45.133 96.902H41.15v3.983h3.982v-3.983z"/><path id="S" d="M61.062 96.902H57.08v3.983h3.982v-3.983z"/><path id="T" d="M96.903 96.902H92.92v3.983h3.982v-3.983z"/><path id="U" d="M120.797 96.902h-3.983v3.983h3.983v-3.983z"/></defs></svg>